<?xml version="1.0" encoding="utf-8"?>
<!-- Generator: Adobe Illustrator 23.0.1, SVG Export Plug-In . SVG Version: 6.00 Build 0)  -->
<svg version="1.1" id="Calque_1" xmlns="http://www.w3.org/2000/svg" xmlns:xlink="http://www.w3.org/1999/xlink" x="0px" y="0px"
	 viewBox="0 0 437.7 160.3" style="enable-background:new 0 0 437.7 160.3;" xml:space="preserve">
<style type="text/css">
	.st0{fill:#FFFFFF;}
</style>
<title>sisma</title>
<path class="st0" d="M167.6,126.3c0.1,0.4,0.3,0.8,0.4,1.1c1.4,3.6,4.6,6.3,8.4,7C173.3,132,170.3,129.2,167.6,126.3z"/>
<path class="st0" d="M77.8,46.6c1.3-5.5,3-10.9,4.9-16.2c-0.9-4.4-2.5-8.6-4.8-12.5c-4.3,9.7-7.7,19.9-9.9,30.4L77.8,46.6z"/>
<path class="st0" d="M46.8,154.7c-2.9-6.6-5.4-13.3-7.4-20.1c-4.3-0.4-8-3.2-9.5-7.2c-2.2-4.9-3-11.9-2.6-21.1l-3.3,0.6
	c2.2,16.5,6.6,32.7,13,48.1c1.1,0.1,2.3,0.1,3.5,0.1C42.6,155.2,44.7,155,46.8,154.7z"/>
<path class="st0" d="M19.1,107.9l-9.1,1.8c1.9,14,5.3,27.8,10.1,41.2c3.5,1.8,7.4,3.1,11.3,3.7C25.4,139.5,21.3,123.9,19.1,107.9z"
	/>
<path class="st0" d="M74.4,92.3c-2.7-4.6-5.9-8.8-9.7-12.5v0.5c0,19,3.5,37.9,10.4,55.7c2.5-4.5,4.1-9.4,4.7-14.5
	C77,111.9,75.2,102.2,74.4,92.3z"/>
<path class="st0" d="M54.1,26.5c2.2-6.6,4.7-13.1,7.7-19.4c-3.2-0.7-6.4-1-9.6-1c-2.9,6.6-5.5,13.3-7.7,20.2
	c1.4-0.4,2.8-0.6,4.3-0.6C50.6,25.6,52.4,25.9,54.1,26.5z"/>
<path class="st0" d="M24.1,77.2l7.2,6.8c0-1.3,0-2.5,0-3.8c0-12.8,1.3-25.6,3.9-38.1c0-0.9,0-1.9,0.1-2.9c0.2-2.7,1-5.2,2.4-7.5
	C40,23,43,14.4,46.6,6.1c-3.7,0.3-7.3,0.9-10.8,2c-8.5,21.4-13.1,44.1-13.6,67.1C22.8,76,23.5,76.6,24.1,77.2z"/>
<path class="st0" d="M4.1,110.8C3.4,125.5,6,136.6,11.9,144c0.3,0.4,0.6,0.7,0.9,1c-3.5-11.2-6.1-22.8-7.7-34.4L4.1,110.8z"/>
<path class="st0" d="M17.4,69.8c1-20.2,5.1-40.1,12.1-59c-2.5,1.3-4.8,2.9-6.9,4.7c-2.7,2.3-5,5.1-6.8,8.1
	c-2.5,8.7-4.3,17.6-5.6,26.5c0.2,4,1.1,7.9,2.6,11.6C14,64.6,15.6,67.3,17.4,69.8z"/>
<path class="st0" d="M46.5,98.8c-1.3-12.1-1.3-24.4-0.1-36.5l-1.1-1c-2.7-2.4-5-5.1-7-8c-1.3,8.9-2,18-2,27c0,2.9,0.1,5.8,0.2,8.7
	l4.5,4.3C43.1,95.1,44.9,97,46.5,98.8z"/>
<path class="st0" d="M71.7,140.8c-8-19.2-12.1-39.8-12.1-60.6c0-1.7,0-3.5,0.1-5.2L51,66.7c-0.4,4.5-0.5,9-0.5,13.5
	c0,9.3,0.8,18.6,2.3,27.7c1.3,3.1,2,6.4,1.9,9.8c2.4,10.3,5.7,20.3,9.9,29.9C67.3,145.7,69.7,143.4,71.7,140.8z"/>
<path class="st0" d="M59.9,150.6c0.1-0.1,0.3-0.2,0.5-0.3c-3.2-7-5.8-14.3-8-21.7c-0.5,0.8-1,1.6-1.6,2.3c-1.6,1.8-3.8,3-6.2,3.4
	c2.1,6.6,4.5,13,7.3,19.3C54.6,153,57.4,151.9,59.9,150.6z"/>
<path class="st0" d="M84,42.6c-0.3,1-0.6,2.1-0.9,3.1l0.9-0.1C84.1,44.5,84,43.5,84,42.6z"/>
<path class="st0" d="M60.9,49.5l1.9-0.3c2.5-12.3,6.4-24.3,11.7-35.7c-2.2-2.2-4.9-3.8-7.8-4.9c-3.3,6.9-6.1,14-8.4,21.3
	c0.4,0.5,0.6,1.1,0.9,1.7C60.6,35.7,61.2,41.6,60.9,49.5z"/>
<path class="st0" d="M121.4,80.2c0,7.7,0.9,15.4,2.7,22.8l5.4-61.6C124.1,53.7,121.3,66.9,121.4,80.2z"/>
<path class="st0" d="M121.4,134.4l1.6-18.2c-11-28.9-8.2-61.3,7.7-87.9l1.6-18.2C103.4,45.4,99,94.7,121.4,134.4L121.4,134.4z"/>
<path class="st0" d="M120.6,142.8c-27-41.9-24.1-96.4,7.2-135.2h-11.5c-4.6,6.4-8.6,13.2-11.9,20.4l-7.3,83.8
	c3.9,14.8,10.5,28.8,19.5,41.3h3.1L120.6,142.8z"/>
<path class="st0" d="M106.2,7.7l-0.6,7.4c1.5-2.5,3-5,4.6-7.4C110.2,7.7,106.2,7.7,106.2,7.7z"/>
<path class="st0" d="M93.5,153.2h0.2l-0.2-0.3V153.2z"/>
<path class="st0" d="M110.5,153.2c-6-8.8-10.8-18.3-14.5-28.2l-1.6,19c1.6,3.2,3.4,6.3,5.2,9.3h10.9V153.2z"/>
<path class="st0" d="M217.3,125.2c-8.7-0.1-17.2-2.8-24.5-7.7c0,1.1,0,2.3-0.1,3.5c-0.2,2.2-0.7,4.3-1.5,6.3c7,4,14.8,6.4,22.9,7
	C215.6,131.4,216.7,128.4,217.3,125.2z"/>
<path class="st0" d="M217.7,106.1c-0.6-3.3-1.6-6.5-3-9.5c-7.7-1.6-13.3-8.4-13.3-16.3c0-0.6,0-1.2,0.1-1.8
	c-0.4-0.4-0.9-0.9-1.3-1.3l-6.3-6c-5,13.4,1.8,28.3,15.1,33.3C211.8,105.5,214.8,106.1,217.7,106.1L217.7,106.1z"/>
<path class="st0" d="M151.8,63.5c1.9,3.9,4.4,7.5,7.4,10.6c1.3-12.1,6.2-23.5,14.2-32.6c0-0.7,0-1.4,0.1-2.2
	c0.2-3.6,1.7-7.1,4.1-9.8c2.4-2.6,5.8-4,9.3-3.9c2-0.1,4,0.3,5.8,1.1c7.8-3.7,16.3-5.7,25-5.7c-0.7-1.5-1.5-2.9-2.5-4.3
	c-1.2-1.7-2.6-3.2-4.2-4.5C182.6,15.2,158.9,35.7,151.8,63.5z"/>
<path class="st0" d="M173.1,80.2c0-8.1,2.2-16.1,6.4-23.1c-1.6-1.8-3.1-3.9-4.2-6.1c-0.4-0.8-0.7-1.7-1-2.6
	c-6.4,8.8-10,19.4-10.3,30.3l9.8,9.3C173.3,85.5,173.1,82.8,173.1,80.2z"/>
<path class="st0" d="M198.9,39.5c6-2.8,12.6-4.3,19.2-4.3c1.2,0,2.4,0.1,3.6,0.2c-0.4-3.2-1-6.3-2-9.3c-0.5,0-1.1,0-1.6,0
	c-7.3,0-14.6,1.5-21.4,4.4c0.2,0.4,0.4,0.8,0.6,1.2C198.1,34.2,198.7,36.9,198.9,39.5z"/>
<path class="st0" d="M199,49.5l23.2-4c0-1.8,0-3.5-0.1-5.2c-1.3-0.1-2.7-0.2-4-0.2c-6.6,0-13.2,1.6-19,4.8
	C199.1,46.4,199.1,47.9,199,49.5z"/>
<path class="st0" d="M211.3,139c-8-0.9-15.8-3.5-22.8-7.6c-2.2,2.1-5.1,3.2-8.9,3.2c-1,0-2.1-0.1-3.1-0.3c8,6.2,17.3,10.5,27.2,12.6
	C206.6,144.8,209.1,142,211.3,139z"/>
<path class="st0" d="M210.5,89.1c-1-1.4-2-2.8-3.1-4.2C208.1,86.5,209.2,87.9,210.5,89.1z"/>
<path class="st0" d="M150.7,109.2l-8.4,1.6c0,0.7,0,1.3-0.1,1.9c8,18.6,22.5,33.6,40.8,42.2c5.1-0.4,10.2-1.9,14.8-4.2
	C176.7,144.6,159.4,129.3,150.7,109.2z"/>
<path class="st0" d="M165.5,107.2l-0.5-0.9l-9.3,1.8c3,6.6,7,12.8,11.9,18.1C165.9,121.7,165.2,115.3,165.5,107.2z"/>
<path class="st0" d="M142.8,124.8c1,8,3.5,14.4,7.3,19.2c4.9,6.2,12.3,9.8,22.3,10.8C160.2,147.4,150,137,142.8,124.8z"/>
<path class="st0" d="M149.1,55.4c8.8-24.2,29.6-42.1,54.8-47.1c-4.7-1.6-9.7-2.3-14.7-2.2c-2.8,0-5.6,0.2-8.4,0.6
	c-12.4,6.3-23.1,15.7-30.9,27.2c-0.7,2.7-1.1,5.4-1.3,8.1C148,46.4,148.2,51,149.1,55.4z"/>
<path class="st0" d="M218.3,111.1H218c-17,0-30.8-13.8-30.8-30.8c0-4.4,0.9-8.8,2.8-12.8l-6.5-6.2l-0.4-0.4
	c-5.8,10.4-6.6,22.8-2.3,33.8c3.7,3.4,6.8,7.4,9.4,11.7c0.7,1.3,1.3,2.6,1.7,4c7.3,6.3,16.6,9.8,26.2,9.8h0.1c0-0.3,0.1-0.5,0.1-0.8
	C218.5,116.6,218.5,113.8,218.3,111.1z"/>
<path class="st0" d="M243.9,80.2c0-5.4-1.7-10.7-4.9-15.1l-3.6,34.1C240.9,94.4,243.9,87.5,243.9,80.2z"/>
<path class="st0" d="M272.6,7.7H267c2.1,1.4,4.1,2.9,6.1,4.5L272.6,7.7z"/>
<path class="st0" d="M256.3,92l1.6-15.1c-1-11.9-7.2-22.7-17-29.5l-1.1,10.9c12.1,12,12.2,31.5,0.2,43.6c-1.6,1.6-3.3,3-5.2,4.2
	l-1.1,11C244.5,112.5,252.8,103.3,256.3,92z"/>
<path class="st0" d="M331.4,153.2l0.7-10.4c-2,3.6-4.1,7-6.4,10.4H331.4z"/>
<path class="st0" d="M229.8,153.2h19.9l0.8-7.2c-6.5,3.2-13.5,5.5-20.6,6.6L229.8,153.2z"/>
<path class="st0" d="M277.3,80.2c0,11.3-3.3,22.4-9.4,31.9l1.6,13.1c6.4-7.2,11.2-15.8,14-25L277,45.7c-7.6-12.9-19.1-23-32.9-28.7
	l-1,9.6C263.9,36.4,277.2,57.3,277.3,80.2z"/>
<path class="st0" d="M270.2,131.8l1.4,11.2c23.5-20,33.9-51.4,26.9-81.4l-7.2,24.2C289.9,103.1,282.5,119.4,270.2,131.8z"/>
<path class="st0" d="M259.5,62.5l1.1-10.9l6.2,52.1c12.9-26.6,2-58.6-24.3-71.9l-1,9.9C249.5,46.7,255.8,53.9,259.5,62.5z"/>
<path class="st0" d="M245.1,7.7l-0.4,4.2c12.3,4.8,23,12.8,31.1,23.1L274,19.6c-5-4.6-10.6-8.6-16.6-11.9
	C257.4,7.7,245.1,7.7,245.1,7.7z"/>
<path class="st0" d="M231.4,137.9l-1,9.6c7.3-1.3,14.3-3.8,20.8-7.4l1.2-11.6C246.1,132.9,239,136.1,231.4,137.9z"/>
<path class="st0" d="M339.6,33.8l1.3-19.1c-1.3-2.4-2.6-4.7-4-7H326C331.5,15.9,336.1,24.6,339.6,33.8z"/>
<path class="st0" d="M317,56.5l1.3-4.5l-0.5,7.9c3.6,17.8,2.4,36.3-3.5,53.5l-1.6,24.7c22.4-36.5,21.8-82.6-1.6-118.4l-3.6,11.9
	C311.7,39.5,314.9,47.8,317,56.5z"/>
<path class="st0" d="M301.2,52.6c11.6,35,0.1,73.5-28.9,96.3l0.5,4.3h8.7c3.7-3.2,7.2-6.7,10.3-10.5l22.1-75.6
	c-1.3-9.9-4.2-19.5-8.5-28.5L301.2,52.6z"/>
<path class="st0" d="M338.7,47.1c-3.9-14.1-10.3-27.5-18.8-39.4h-5.3l-1.8,5.9c28.5,40.4,28.1,94.5-0.9,134.5l-0.3,5h8
	c5.3-7.4,9.8-15.3,13.4-23.6L338.7,47.1z"/>
<path class="st0" d="M233,122.7l-1,9.9c7.8-2.1,15-5.9,21.2-11.1l1.6-15.2C249.4,113.8,241.8,119.6,233,122.7z"/>
<path class="st0" d="M428.8,123.8c-2,10-4.7,19.8-8.2,29.3h11.5L428.8,123.8z"/>
<path class="st0" d="M390.6,74.6l6.5-26.1c-2.2-12.7-5.9-25.2-10.8-37.1L382,26.3C387.2,41.9,390,58.2,390.6,74.6z"/>
<path class="st0" d="M386.1,119.6h9.4c1.2-5.5,2.2-11.2,2.9-16.9h-9.2C388.4,108.4,387.4,114,386.1,119.6z"/>
<path class="st0" d="M349.3,139.9l-3.8,13.2h7.5c12.2-22.4,18.5-47.5,18.5-73c0-5-0.2-9.9-0.7-14.8l-9.7,33.8
	C359.2,113.3,355.3,127,349.3,139.9z"/>
<path class="st0" d="M415.1,7.7h-9.7c17.5,45.1,18.1,95.1,1.7,140.6l0.4,4.9h7.7c5.7-15.5,9.6-31.6,11.5-48L416,10.4
	C415.8,9.4,415.4,8.5,415.1,7.7z"/>
<path class="st0" d="M383.6,102.7l1.1-4.6c2.3-21.1,0.5-42.5-5.2-63l-5.3,18.4c5.8,34.1,0.3,69.1-15.7,99.7h10.3
	c1.4-2.8,2.6-5.7,3.9-8.5l6.6-25h1.6c1.3-5.6,2.4-11.2,3.2-16.9L383.6,102.7z"/>
<path class="st0" d="M404.8,80.2c0,13.2-1.4,26.4-4.2,39.4h4.1l1.3,15.9c12.4-42.1,10.2-87.1-6-127.8h-9.9
	C399.8,30.6,404.9,55.3,404.8,80.2z"/>
</svg>
