<?xml version="1.0" standalone="no"?>
<!DOCTYPE svg PUBLIC "-//W3C//DTD SVG 20010904//EN"
 "http://www.w3.org/TR/2001/REC-SVG-20010904/DTD/svg10.dtd">
<svg version="1.0" xmlns="http://www.w3.org/2000/svg"
 width="1280.000000pt" height="1280.000000pt" viewBox="0 0 1280.000000 1280.000000"
 preserveAspectRatio="xMidYMid meet">
<metadata>
Created by potrace 1.11, written by Peter Selinger 2001-2013
</metadata>
<g transform="translate(0.000000,1280.000000) scale(0.100000,-0.100000)"
fill="#000000" stroke="none">
<path d="M7020 12306 c0 -7 -21 -60 -46 -117 -51 -116 -66 -149 -70 -164 -1
-5 -24 -59 -49 -120 -25 -60 -78 -191 -116 -290 -39 -99 -74 -189 -79 -200 -5
-11 -18 -47 -29 -80 -11 -33 -25 -73 -32 -90 -7 -16 -13 -34 -15 -40 -2 -5
-35 -102 -74 -215 -69 -198 -76 -219 -87 -267 -5 -20 -3 -21 33 -12 45 11 67
15 147 27 62 10 335 8 377 -2 14 -3 39 -9 55 -13 17 -4 32 -7 35 -8 3 0 27 -7
53 -14 28 -8 51 -10 56 -5 7 8 71 187 75 209 1 6 4 15 7 20 6 9 40 108 45 130
3 10 68 184 81 215 3 8 7 17 7 20 3 9 58 152 101 260 69 171 183 437 235 548
27 56 51 110 52 119 2 14 -10 20 -62 30 -36 7 -76 15 -90 17 -31 6 -102 16
-155 21 -22 2 -40 5 -40 5 0 3 -94 9 -235 15 -85 3 -161 8 -167 10 -7 3 -13
-2 -13 -9z"/>
<path d="M6486 12303 c-1 -1 -37 -5 -81 -8 -44 -4 -82 -8 -85 -10 -3 -2 -30
-6 -60 -10 -30 -4 -86 -13 -125 -21 -38 -9 -83 -17 -100 -20 -52 -8 -69 -12
-102 -22 -18 -6 -33 -9 -33 -6 0 3 -8 0 -18 -5 -11 -6 -30 -12 -43 -15 -122
-25 -119 -23 -163 -139 -52 -138 -51 -136 -69 -182 -9 -22 -37 -98 -62 -170
-25 -71 -49 -137 -52 -145 -3 -8 -7 -17 -8 -20 0 -3 -31 -95 -67 -205 -68
-203 -142 -441 -172 -550 -10 -33 -26 -89 -36 -125 -10 -36 -26 -92 -35 -125
-10 -33 -20 -67 -23 -75 -3 -8 -6 -23 -7 -32 -2 -10 -3 -19 -5 -20 -1 -2 -3
-10 -5 -18 -1 -8 -8 -35 -15 -60 -15 -56 -14 -50 -48 -192 -16 -65 -27 -118
-25 -118 2 0 -1 -8 -6 -17 -5 -10 -11 -31 -14 -48 -3 -16 -15 -70 -27 -120
-11 -49 -23 -101 -25 -115 -3 -14 -12 -56 -20 -95 -8 -38 -17 -81 -19 -95 -3
-14 -5 -25 -6 -25 -2 0 -9 -32 -15 -70 -2 -16 -6 -40 -9 -51 -2 -12 -7 -37
-10 -55 -3 -19 -8 -45 -11 -59 -3 -14 -7 -38 -10 -55 -3 -16 -8 -41 -10 -55
-13 -63 -15 -77 -19 -115 -3 -22 -12 -76 -20 -120 -8 -44 -17 -100 -20 -125
-4 -25 -8 -56 -10 -70 -9 -52 -19 -126 -21 -145 -3 -28 -16 -125 -20 -144 -3
-20 -14 -111 -21 -176 -2 -27 -7 -63 -10 -80 -3 -16 -7 -52 -9 -80 -2 -27 -6
-70 -9 -95 -13 -124 -23 -234 -31 -350 -3 -41 -7 -102 -10 -135 -10 -126 -23
-398 -29 -603 l-3 -124 106 -106 c59 -59 157 -154 219 -212 62 -58 148 -139
191 -180 121 -115 186 -176 200 -184 11 -7 13 20 10 139 -3 108 -2 142 4 158
3 9 2 19 -2 22 -5 3 -5 21 -1 40 5 21 4 35 -2 35 -5 0 -7 4 -3 9 3 6 8 124 11
263 7 307 7 296 29 648 3 50 14 198 20 275 16 192 17 195 30 305 5 40 11 99
20 185 4 33 8 70 10 81 2 12 7 48 11 80 9 71 10 78 13 84 1 3 4 25 7 50 6 58
11 95 18 145 11 71 47 289 52 315 3 14 7 39 10 55 8 50 34 188 40 215 3 14 7
34 8 45 4 22 17 85 20 100 9 35 17 115 20 210 6 122 13 207 21 245 4 14 8 34
10 45 2 11 6 27 8 35 21 81 29 107 37 122 6 10 10 23 10 30 0 7 14 40 30 73
16 33 30 65 30 72 0 6 3 13 8 15 8 3 46 75 42 80 -1 2 5 20 14 41 8 21 15 41
14 45 -1 4 1 14 4 22 8 21 29 99 34 123 4 21 22 82 31 107 9 22 12 34 42 140
20 72 92 292 165 505 42 121 78 227 81 235 2 8 18 51 35 95 54 137 75 190 76
195 0 3 6 18 12 33 7 16 12 30 12 31 0 2 8 21 17 42 9 22 17 41 18 44 5 15
145 352 152 363 4 6 -84 6 -91 0z"/>
<path d="M8167 12081 c-9 -15 -14 -31 -10 -35 3 -3 1 -6 -5 -6 -7 0 -12 -5
-12 -12 0 -6 -13 -39 -29 -72 -16 -34 -48 -104 -71 -156 -23 -52 -48 -108 -55
-125 -114 -257 -365 -909 -390 -1015 -2 -8 -18 -55 -35 -105 -17 -49 -33 -97
-35 -105 -2 -8 -4 -19 -6 -25 -2 -5 14 -43 34 -82 20 -40 37 -81 37 -91 0 -10
4 -22 9 -28 8 -8 37 -115 47 -174 3 -14 7 -32 10 -41 2 -9 7 -34 9 -55 3 -22
7 -50 10 -64 11 -54 14 -71 20 -132 3 -35 8 -79 10 -98 11 -89 18 -288 19
-538 l0 -274 41 6 c90 11 105 17 111 45 3 14 8 33 11 41 3 8 7 22 8 30 4 24
14 72 25 120 6 25 17 74 25 110 9 36 18 74 20 85 3 11 8 33 11 49 2 16 7 32 9
36 2 3 6 17 9 31 3 13 8 35 11 49 3 14 8 34 10 45 3 11 25 94 51 185 25 91 47
174 50 185 2 11 20 72 40 135 20 63 39 129 44 146 4 18 10 37 14 43 4 6 9 20
11 31 4 19 108 336 122 370 3 8 7 20 9 25 2 11 61 172 71 195 3 8 7 17 8 20 4
11 19 51 67 175 27 72 55 136 60 143 6 6 8 12 5 12 -3 0 4 24 17 53 23 53 38
88 41 97 6 16 30 72 55 128 17 35 30 65 30 67 0 2 17 41 38 87 65 143 64 126
13 172 -84 77 -202 166 -220 166 -5 0 -11 4 -13 8 -4 9 -100 65 -173 100 -27
14 -66 32 -85 42 -66 32 -84 32 -103 1z"/>
<path d="M5165 11912 c-16 -10 -32 -19 -35 -22 -4 -4 -39 -24 -95 -54 -11 -6
-24 -17 -28 -23 -4 -7 -13 -13 -18 -13 -12 0 -102 -61 -107 -72 -2 -5 -8 -8
-13 -8 -5 0 -17 -7 -26 -15 -10 -8 -54 -42 -98 -77 -140 -110 -296 -263 -390
-382 -16 -21 -37 -46 -45 -56 -38 -46 -49 -61 -105 -145 -33 -50 -68 -106 -78
-127 -13 -28 -72 -234 -81 -283 -1 -5 -4 -14 -8 -20 -3 -5 -14 -46 -24 -90
-10 -44 -19 -83 -20 -87 -1 -5 -2 -9 -4 -10 -1 -2 -3 -11 -5 -20 -2 -9 -10
-45 -19 -80 -8 -35 -17 -74 -20 -88 -3 -14 -10 -43 -16 -65 -6 -22 -12 -49
-14 -60 -3 -18 -6 -34 -21 -100 -28 -127 -45 -204 -50 -230 -3 -20 -30 -158
-40 -205 -3 -14 -8 -41 -10 -60 -3 -19 -8 -46 -11 -60 -3 -14 -8 -36 -10 -50
-3 -14 -7 -36 -9 -50 -6 -30 -12 -61 -20 -114 -3 -21 -7 -48 -10 -60 -2 -12
-7 -37 -10 -56 -2 -19 -7 -46 -10 -60 -3 -14 -8 -43 -10 -65 -11 -93 -17 -132
-24 -160 -14 -59 7 -277 43 -445 3 -14 8 -36 11 -50 13 -62 15 -71 20 -87 6
-23 24 -94 29 -113 6 -20 69 -203 92 -265 11 -27 22 -51 27 -53 4 -2 7 -9 7
-15 0 -12 120 -259 130 -267 3 -3 25 -39 50 -80 24 -41 63 -103 87 -138 24
-35 43 -66 43 -68 0 -3 7 -12 15 -20 13 -14 15 -12 16 18 0 18 2 51 4 73 2 22
6 92 10 155 3 63 8 135 11 160 2 25 6 72 9 105 3 33 8 94 11 135 4 41 7 85 8
98 0 12 2 22 6 22 3 0 5 19 5 43 -1 23 5 85 12 137 6 52 15 122 18 155 4 33 9
74 11 90 2 17 6 50 9 75 6 45 8 62 20 135 3 22 7 54 9 70 9 64 18 131 22 150
2 11 7 43 10 70 4 28 10 57 15 66 4 9 6 19 3 21 -2 3 0 25 5 49 5 24 12 60 15
79 3 19 8 45 10 56 2 12 7 39 10 60 4 22 11 62 16 89 6 28 13 61 15 75 3 14 8
41 11 60 4 19 7 40 9 45 2 9 12 59 21 105 1 8 9 44 18 80 8 36 17 79 20 95 14
79 131 559 179 735 9 30 25 91 38 135 12 44 23 87 24 95 1 8 5 22 8 30 6 13
65 209 72 235 1 6 5 17 8 25 13 35 89 286 90 298 0 6 3 12 7 12 4 0 7 6 7 13
0 13 109 332 118 348 4 5 8 17 10 26 2 10 15 48 29 86 14 37 26 70 26 72 0 8
-13 4 -45 -13z"/>
<path d="M9056 11318 c-51 -116 -143 -335 -183 -438 -25 -63 -50 -126 -56
-140 -5 -14 -11 -30 -13 -37 -1 -6 -17 -49 -34 -95 -129 -331 -306 -920 -426
-1413 -8 -34 -7 -29 -25 -110 -7 -33 -14 -64 -15 -70 -13 -54 -16 -77 -8 -72
6 3 28 8 50 11 21 3 49 7 60 10 12 2 39 7 60 10 48 8 200 34 234 41 13 2 40 7
60 10 20 3 47 7 60 10 86 17 149 28 178 31 68 7 79 19 96 109 1 6 5 19 9 30 3
11 8 31 11 45 7 35 65 252 73 270 8 18 7 16 17 65 4 22 11 44 14 50 4 5 7 12
7 15 0 11 31 108 126 395 55 165 102 309 104 320 3 11 -5 58 -16 105 -11 47
-22 92 -24 100 -13 62 -86 271 -142 410 -49 119 -181 380 -192 380 -4 0 -15
-19 -25 -42z"/>
<path d="M9556 9368 c-2 -7 -16 -52 -30 -99 -33 -111 -33 -119 2 -114 15 2 30
4 33 4 6 1 9 221 3 221 -3 0 -6 -6 -8 -12z"/>
<path d="M5919 8537 c-1 -4 -2 -10 -3 -14 -3 -10 -16 -99 -21 -141 -2 -18 -6
-49 -9 -70 -13 -94 -32 -252 -41 -342 -2 -14 -6 -50 -9 -80 -4 -30 -9 -77 -11
-105 -3 -46 -10 -125 -20 -235 -7 -67 -18 -243 -30 -465 -6 -94 -16 -405 -15
-432 0 -7 0 -21 0 -30 0 -10 0 -38 0 -63 0 -25 0 -52 0 -60 -3 -153 -1 -330 4
-338 3 -6 2 -13 -4 -17 -6 -4 -8 -11 -4 -16 3 -6 7 -63 9 -127 1 -64 4 -160 5
-212 l2 -95 68 -65 c70 -67 293 -278 433 -410 76 -71 112 -109 242 -245 l57
-60 -7 70 c-9 91 -11 114 -20 210 -3 44 -8 96 -10 115 -2 19 -6 85 -10 145 -4
61 -8 133 -10 160 -24 334 -24 1167 0 1565 3 52 8 127 10 165 4 64 10 148 20
265 2 25 7 76 10 114 3 38 8 73 11 78 3 4 -77 90 -178 191 -102 100 -200 202
-219 226 -19 24 -41 51 -50 60 -8 9 -33 39 -55 66 -21 28 -41 52 -44 55 -3 3
-9 12 -15 21 -29 48 -85 123 -86 116z"/>
<path d="M6929 7460 c0 -8 -2 -37 -4 -65 -9 -105 -16 -214 -22 -340 -9 -181
-8 -1069 1 -1245 13 -252 23 -413 30 -484 3 -28 8 -82 11 -121 3 -38 8 -88 10
-110 2 -22 7 -65 10 -95 9 -88 16 -153 20 -180 2 -14 7 -47 10 -75 5 -49 32
-256 40 -305 15 -100 28 -188 31 -205 1 -11 3 -20 4 -20 1 0 3 -12 5 -26 2
-15 13 -46 26 -70 12 -24 21 -45 20 -47 -1 -1 9 -39 23 -85 55 -186 76 -316
81 -492 1 -55 8 -120 15 -145 7 -25 14 -54 16 -65 5 -28 22 -100 39 -162 2
-10 9 -38 16 -63 6 -25 12 -52 14 -60 2 -8 11 -40 20 -70 9 -30 18 -64 20 -75
3 -12 23 -84 46 -160 23 -77 43 -147 44 -155 2 -8 4 -15 5 -15 1 0 3 -7 5 -15
1 -8 15 -53 31 -100 15 -47 29 -89 30 -95 1 -5 16 -53 34 -105 18 -52 33 -101
33 -107 0 -7 4 -13 9 -13 4 0 8 -7 8 -15 0 -21 83 -257 165 -470 49 -128 143
-362 163 -405 11 -25 32 -75 47 -112 16 -38 31 -68 35 -68 11 0 160 117 229
178 93 84 156 149 290 302 41 46 45 63 28 102 -14 31 -28 67 -32 78 -1 3 -8
21 -16 40 -9 19 -37 91 -63 160 -26 69 -57 147 -68 175 -11 27 -21 54 -23 60
-1 5 -5 17 -8 25 -65 172 -235 707 -281 890 -3 8 -16 58 -30 110 -15 52 -38
142 -52 200 -25 104 -36 150 -39 160 -1 3 -7 32 -14 65 -8 33 -14 65 -16 70
-1 6 -5 17 -8 25 -3 8 -8 32 -11 52 -3 21 -11 59 -17 85 -15 66 -16 73 -40
198 -12 61 -23 119 -25 130 -3 11 -7 36 -10 55 -3 19 -8 44 -11 55 -3 11 -7
34 -8 50 -1 17 -7 57 -13 90 -7 33 -14 76 -16 95 -3 19 -7 44 -9 55 -3 11 -8
46 -12 79 -3 32 -8 68 -10 80 -2 11 -6 44 -10 71 -3 28 -8 57 -10 65 -2 8 -6
47 -9 85 -4 39 -8 81 -11 95 -4 23 -11 95 -20 200 -2 25 -6 70 -9 100 -8 88
-17 211 -21 270 -2 30 -4 55 -5 55 -1 0 -7 154 -15 355 -6 154 -7 724 -1 787
4 41 3 43 -94 135 -171 163 -442 422 -475 453 -17 17 -53 50 -78 75 -29 26
-47 38 -48 30z"/>
<path d="M8026 6243 c2 -174 11 -438 19 -558 5 -80 16 -241 20 -285 1 -19 6
-71 9 -115 4 -44 8 -93 10 -110 2 -16 7 -61 10 -99 7 -70 12 -110 21 -181 8
-60 14 -106 19 -145 12 -92 18 -137 22 -160 9 -51 24 -146 29 -185 3 -22 10
-62 15 -90 5 -27 14 -77 19 -110 6 -33 20 -107 32 -165 12 -58 23 -116 26
-130 7 -51 12 -75 13 -75 1 0 3 -9 5 -19 2 -11 7 -31 11 -45 4 -14 8 -30 9
-36 0 -5 5 -28 10 -50 5 -22 10 -49 11 -60 1 -11 3 -20 4 -20 1 0 3 -7 5 -15
2 -8 17 -71 35 -140 17 -69 33 -132 35 -140 7 -33 88 -327 101 -370 16 -49 21
-69 55 -180 38 -130 170 -522 201 -600 17 -41 31 -79 33 -85 1 -5 6 -21 12
-35 6 -14 16 -42 24 -62 l13 -38 38 73 c21 39 55 108 74 152 20 44 45 100 56
125 11 25 21 50 23 55 1 6 5 17 8 25 62 163 132 421 152 567 3 21 8 49 10 63
16 84 14 100 -30 260 -26 91 -48 174 -50 185 -7 29 -12 50 -35 140 -12 44 -23
89 -25 100 -2 11 -15 70 -30 130 -14 61 -30 137 -36 169 -5 33 -12 62 -14 65
-2 4 -6 26 -10 51 -4 25 -8 48 -11 51 -2 4 -6 22 -9 40 -2 19 -7 45 -9 59 -5
23 -31 175 -40 230 -11 66 -27 168 -30 195 -2 17 -7 50 -11 75 -8 49 -13 87
-19 140 -5 44 -14 122 -22 180 -6 53 -10 91 -19 185 -17 188 -13 175 -90 295
-23 36 -59 93 -81 127 -21 35 -42 63 -46 63 -5 0 -8 5 -8 11 0 6 -9 23 -21 37
-11 15 -40 54 -65 87 -24 33 -54 73 -67 90 -30 41 -173 212 -217 259 -74 81
-186 196 -191 196 -3 0 -4 -80 -3 -177z"/>
<path d="M4940 4294 c-41 -8 -84 -16 -95 -18 -11 -3 -31 -5 -44 -5 -22 -1 -23
-3 -16 -67 3 -36 8 -75 11 -87 2 -12 6 -39 9 -62 3 -22 10 -65 15 -95 10 -58
19 -119 25 -160 2 -14 11 -65 20 -115 29 -160 36 -199 40 -234 3 -18 7 -36 9
-40 3 -3 7 -26 11 -51 4 -25 8 -47 10 -50 2 -3 6 -25 10 -50 4 -25 9 -48 12
-53 2 -4 7 -24 9 -45 3 -20 9 -53 14 -72 5 -19 11 -46 14 -60 5 -27 35 -164
42 -192 2 -10 6 -27 9 -38 3 -11 7 -28 9 -37 2 -10 9 -38 16 -63 6 -25 18 -74
26 -110 8 -36 17 -72 19 -80 6 -20 19 -69 44 -165 12 -44 31 -111 42 -150 11
-38 27 -92 35 -120 30 -107 85 -288 89 -295 2 -3 6 -17 8 -31 7 -33 174 -536
193 -576 8 -17 14 -35 14 -39 0 -9 120 -332 144 -389 7 -16 40 -96 72 -177
l59 -148 60 -1 c311 -7 567 2 687 24 29 5 33 16 16 50 -9 18 -23 48 -31 67 -8
19 -31 76 -52 125 -20 50 -44 106 -52 125 -15 36 -19 45 -46 115 -28 73 -89
230 -97 250 -4 11 -12 31 -18 45 -6 14 -18 45 -26 70 -8 25 -19 56 -24 70 -14
33 -104 292 -106 305 -2 8 -36 117 -60 190 -5 15 -6 17 -35 112 -24 77 -30 87
-51 89 -62 6 -125 20 -180 41 -8 3 -21 7 -27 9 -29 6 -167 79 -211 112 -51 38
-164 142 -155 142 3 0 -4 8 -15 19 -12 10 -22 21 -22 25 0 4 -9 16 -20 28 -21
23 -105 188 -125 248 -1 3 -7 19 -14 35 -11 25 -40 111 -47 138 -1 4 -3 9 -4
12 -1 3 -3 8 -5 13 -20 72 -54 225 -60 267 -5 35 -14 88 -20 120 -2 9 -9 75
-21 189 -13 136 -17 238 -18 534 -1 208 -4 322 -11 321 -5 -1 -44 -7 -85 -15z"/>
<path d="M4305 4169 c-16 -5 -48 -11 -70 -14 -22 -3 -49 -9 -60 -12 -11 -3
-31 -7 -45 -9 -14 -1 -25 -3 -25 -4 0 -3 -45 -12 -125 -25 -19 -3 -43 -8 -53
-11 -11 -3 -29 -7 -40 -9 -18 -2 -84 -15 -107 -20 -3 -1 -23 -5 -45 -9 -80
-15 -77 -12 -70 -69 4 -29 9 -61 11 -72 2 -10 6 -37 9 -60 3 -22 10 -65 15
-95 5 -30 12 -71 15 -90 3 -19 7 -48 9 -65 3 -26 11 -71 30 -180 3 -16 15 -81
26 -144 10 -62 22 -121 24 -130 3 -9 8 -32 11 -51 3 -19 11 -55 16 -80 6 -25
13 -56 15 -70 3 -14 7 -32 9 -40 2 -8 7 -28 9 -45 8 -41 29 -139 61 -275 14
-63 28 -123 30 -133 2 -10 6 -26 9 -35 3 -9 7 -28 10 -42 3 -14 9 -40 15 -58
5 -18 10 -33 10 -35 0 -1 2 -9 4 -17 7 -20 27 -100 32 -125 2 -11 11 -47 20
-80 10 -33 19 -67 21 -75 2 -8 11 -42 20 -75 9 -33 17 -64 19 -70 1 -5 5 -17
8 -25 5 -12 31 -105 41 -145 1 -5 7 -26 13 -45 6 -19 25 -82 43 -140 17 -58
36 -116 42 -130 5 -14 12 -35 14 -47 2 -12 31 -102 65 -200 33 -98 74 -219 90
-269 l30 -92 62 -30 c167 -81 433 -181 527 -199 68 -13 80 -16 80 -22 0 -3 10
-6 23 -7 12 0 34 -4 50 -7 58 -14 83 -19 102 -21 11 -1 25 -5 32 -9 29 -18 20
36 -21 128 -7 17 -34 89 -60 160 -26 72 -52 139 -57 150 -5 11 -13 34 -19 50
-5 17 -23 68 -40 115 -17 47 -33 92 -35 100 -2 8 -20 62 -40 120 -20 58 -38
112 -40 120 -2 8 -13 42 -23 75 -30 88 -93 293 -94 302 0 5 -5 19 -10 33 -5
14 -16 48 -23 75 -7 28 -24 88 -38 135 -23 81 -35 126 -37 142 0 4 -7 26 -15
48 -8 22 -11 40 -8 40 4 0 2 5 -5 12 -7 7 -12 22 -12 34 0 12 -6 40 -14 62 -8
22 -17 53 -20 69 -2 15 -12 55 -21 88 -9 33 -18 69 -20 80 -2 11 -8 38 -14 60
-5 22 -12 51 -15 65 -10 48 -15 72 -21 90 -3 10 -8 29 -10 42 -4 23 -32 153
-42 198 -4 14 -7 34 -9 45 -1 11 -5 31 -9 45 -6 25 -12 52 -19 93 -2 12 -7 29
-10 37 -2 8 -7 34 -10 58 -3 24 -8 47 -10 51 -3 4 -7 25 -10 46 -5 38 -18 115
-31 180 -4 17 -8 46 -10 65 -2 19 -5 35 -6 35 -1 0 -3 9 -4 20 -1 11 -6 38
-10 60 -4 22 -8 50 -10 63 -2 12 -8 53 -14 90 -12 73 -18 110 -27 189 -6 48
-9 52 -33 51 -14 -1 -39 -5 -56 -9z"/>
<path d="M3230 3963 c-39 -7 -44 -18 -46 -95 -10 -264 0 -645 20 -848 2 -19 7
-64 10 -100 4 -36 9 -76 11 -90 3 -14 7 -41 9 -60 9 -72 22 -144 41 -240 3
-14 10 -46 15 -73 18 -91 88 -340 110 -392 5 -11 21 -54 35 -95 33 -92 161
-357 205 -425 89 -137 186 -269 219 -299 l21 -19 -16 54 c-8 30 -18 61 -21 69
-3 8 -7 20 -9 25 -1 6 -9 33 -17 60 -105 369 -144 513 -190 695 -30 118 -57
229 -61 245 -14 67 -18 83 -33 140 -8 33 -17 74 -20 90 -2 17 -9 48 -15 70 -6
22 -11 49 -13 60 -1 11 -8 43 -15 70 -6 28 -14 61 -16 75 -3 14 -18 90 -34
170 -15 80 -31 161 -34 180 -3 19 -17 100 -31 180 -35 199 -36 201 -39 235 -4
31 -13 95 -20 131 -2 11 -8 47 -12 79 -4 33 -9 63 -10 68 -1 4 -2 16 -3 27 0
11 -4 19 -8 19 -5 -1 -19 -4 -33 -6z"/>
<path d="M6976 2432 c-53 -77 -146 -174 -202 -209 -10 -7 -36 -24 -56 -37 -47
-31 -201 -92 -255 -101 -32 -5 -41 -10 -38 -23 5 -23 163 -492 175 -517 5 -11
23 -60 40 -110 33 -93 144 -385 160 -420 5 -11 36 -85 69 -165 132 -318 135
-324 179 -304 9 4 26 9 36 11 11 2 43 10 72 19 30 8 55 14 57 12 2 -2 10 2 18
8 8 6 39 19 69 29 53 17 84 30 198 81 29 13 55 24 58 24 3 0 18 9 34 20 15 11
29 17 32 15 2 -2 16 6 31 18 l27 22 -56 125 c-31 69 -62 139 -69 155 -80 180
-306 789 -376 1010 -5 17 -22 71 -38 120 -15 50 -43 138 -61 198 -18 59 -36
107 -39 107 -3 -1 -33 -40 -65 -88z"/>
</g>
</svg>
